<svg width="64" height="64" viewBox="0 0 64 64" fill="none" xmlns="http://www.w3.org/2000/svg">
<path d="M18.6864 31.9995C18.6864 30.8949 19.5818 29.9995 20.6864 29.9995H30V20.6858C30 19.5812 30.8954 18.6858 32 18.6858C33.1046 18.6858 34 19.5812 34 20.6858V29.9995H43.3138C44.4184 29.9995 45.3138 30.8949 45.3138 31.9995C45.3138 33.1041 44.4184 33.9995 43.3138 33.9995H34V43.3132C34 44.4178 33.1046 45.3132 32 45.3132C30.8954 45.3132 30 44.4178 30 43.3132V33.9995H20.6864C19.5818 33.9995 18.6864 33.1041 18.6864 31.9995Z" fill="white"/>
<path fill-rule="evenodd" clip-rule="evenodd" d="M19.5113 10.0495C27.7448 9.12932 36.2551 9.12932 44.4886 10.0495C49.359 10.5939 53.292 14.4302 53.865 19.3288C54.8496 27.7473 54.8496 36.2518 53.865 44.6702C53.292 49.5688 49.359 53.4052 44.4886 53.9495C36.2551 54.8697 27.7448 54.8697 19.5113 53.9495C14.6409 53.4052 10.7079 49.5688 10.1349 44.6702C9.15033 36.2518 9.15033 27.7473 10.1349 19.3288C10.7079 14.4302 14.6409 10.5939 19.5113 10.0495ZM44.0443 14.0248C36.1061 13.1376 27.8938 13.1376 19.9556 14.0248C16.9038 14.3659 14.461 16.7745 14.1079 19.7935C13.1594 27.9032 13.1594 36.0958 14.1079 44.2056C14.461 47.2245 16.9038 49.6332 19.9556 49.9743C27.8938 50.8615 36.1061 50.8615 44.0443 49.9743C47.0962 49.6332 49.539 47.2245 49.8921 44.2056C50.8406 36.0958 50.8406 27.9032 49.8921 19.7935C49.539 16.7745 47.0961 14.3659 44.0443 14.0248Z" fill="white"/>
</svg>
