<svg width="64" height="64" viewBox="0 0 64 64" fill="none" xmlns="http://www.w3.org/2000/svg">
<path d="M19.9556 14.0248C16.9038 14.3659 14.461 16.7745 14.1079 19.7935C13.1594 27.9032 13.1594 36.0958 14.1079 44.2056C14.461 47.2245 16.9038 49.6332 19.9556 49.9743C27.8938 50.8615 36.1061 50.8615 44.0443 49.9743C47.0962 49.6332 49.539 47.2245 49.8921 44.2056C50.5736 38.3785 50.7654 32.5086 50.4675 26.6575C50.4599 26.5064 50.5163 26.359 50.6233 26.252L53.3933 23.4819C53.714 23.1613 54.2618 23.3618 54.2958 23.814C54.8186 30.7604 54.675 37.7444 53.865 44.6702C53.292 49.5688 49.359 53.4052 44.4886 53.9495C36.2551 54.8697 27.7448 54.8697 19.5113 53.9495C14.6409 53.4052 10.7079 49.5688 10.1349 44.6702C9.15033 36.2518 9.15033 27.7473 10.1349 19.3288C10.7079 14.4302 14.6409 10.5939 19.5113 10.0495C27.7448 9.12932 36.2551 9.12932 44.4886 10.0495C46.204 10.2412 47.803 10.8413 49.18 11.7524C49.451 11.9316 49.4778 12.3125 49.2481 12.5422L47.1071 14.6833C46.9319 14.8584 46.6603 14.8879 46.442 14.7709C45.7129 14.3802 44.9027 14.1207 44.0443 14.0248C36.1061 13.1376 27.8938 13.1376 19.9556 14.0248Z" fill="white"/>
<path d="M56.0808 16.0804C56.8618 15.2994 56.8618 14.033 56.0808 13.252C55.2998 12.4709 54.0334 12.4709 53.2524 13.252L30.6666 35.8378L24.0808 29.252C23.2998 28.4709 22.0334 28.4709 21.2524 29.252C20.4713 30.033 20.4713 31.2994 21.2524 32.0804L29.2524 40.0804C30.0334 40.8615 31.2997 40.8615 32.0808 40.0804L56.0808 16.0804Z" fill="white"/>
</svg>
