<svg width="64" height="64" viewBox="0 0 64 64" fill="none" xmlns="http://www.w3.org/2000/svg">
<path fill-rule="evenodd" clip-rule="evenodd" d="M7.47676 22.2751C6.72971 29.2162 6.76301 37.2215 7.80254 44.1344C8.37774 47.9594 11.4995 50.8918 15.353 51.2268L19.3803 51.5768C27.7778 52.3068 36.2228 52.3068 44.6202 51.5768L48.6475 51.2268C52.501 50.8918 55.6228 47.9594 56.198 44.1344C57.2375 37.2215 57.2709 29.2166 56.5238 22.2755C56.4272 21.4709 56.3186 20.6672 56.198 19.865C55.6228 16.0399 52.501 13.1075 48.6475 12.7726L44.6202 12.4225C36.2227 11.6925 27.7778 11.6925 19.3803 12.4225L15.353 12.7726C11.4995 13.1075 8.37774 16.0399 7.80254 19.865C7.68192 20.6671 7.57333 21.4706 7.47676 22.2751ZM19.7267 16.4075C27.8937 15.6975 36.1068 15.6975 44.2738 16.4075L48.3011 16.7575C50.3126 16.9324 51.9422 18.4631 52.2425 20.4598C52.2736 20.6671 52.304 20.8746 52.3335 21.0821L37.5041 29.3207C34.0812 31.2223 29.9191 31.2223 26.4962 29.3207L11.667 21.0822C11.6965 20.8747 11.7269 20.6672 11.7581 20.4598C12.0583 18.4631 13.6879 16.9324 15.6994 16.7575L19.7267 16.4075ZM52.8229 25.386C53.3402 31.4334 53.1467 37.5263 52.2425 43.5395C51.9422 45.5362 50.3126 47.0669 48.3011 47.2418L44.2738 47.5919C36.1069 48.3018 27.8937 48.3018 19.7267 47.5919L15.6994 47.2418C13.6879 47.0669 12.0583 45.5362 11.7581 43.5395C10.8538 37.5263 10.6603 31.4334 11.1776 25.3861L24.5536 32.8173C29.1847 35.3901 34.8157 35.3901 39.4467 32.8173L52.8229 25.386Z" fill="white"/>
</svg>
