<svg width="64" height="64" viewBox="0 0 64 64" fill="none" xmlns="http://www.w3.org/2000/svg">
<path d="M50.5464 5.45297C51.3274 6.23402 51.3274 7.50035 50.5464 8.2814L49.0785 9.74926C57.8492 19.9655 57.3958 35.3731 47.7179 45.051C43.15 49.6189 37.3057 52.1317 31.3332 52.5896V56.6662H35.9998C37.1044 56.6662 37.9998 57.5616 37.9998 58.6662C37.9998 59.7707 37.1044 60.6662 35.9998 60.6662H22.6665C21.5619 60.6662 20.6665 59.7707 20.6665 58.6662C20.6665 57.5616 21.5619 56.6662 22.6665 56.6662H27.3332V52.5895C21.9831 52.1791 16.7357 50.1198 12.4163 46.4115L10.9484 47.8794C10.1673 48.6604 8.90101 48.6604 8.11997 47.8794C7.33892 47.0983 7.33892 45.832 8.11997 45.051L10.0056 43.1653C11.3267 41.8442 13.3797 41.9117 14.6659 43.0644C18.8312 46.7971 24.0777 48.6644 29.325 48.6662L29.3332 48.6662L29.3418 48.6662C34.9692 48.6639 40.5961 46.5159 44.8895 42.2225C53.1906 33.9214 53.4713 20.6356 45.7313 11.9989C44.5787 10.7127 44.5112 8.65975 45.8323 7.33859L47.7179 5.45297C48.499 4.67193 49.7653 4.67193 50.5464 5.45297Z" fill="white"/>
<path fill-rule="evenodd" clip-rule="evenodd" d="M11.3332 26.6662C11.3332 16.7251 19.392 8.66618 29.3332 8.66618C39.2743 8.66618 47.3332 16.7251 47.3332 26.6662C47.3332 36.6073 39.2743 44.6662 29.3332 44.6662C19.392 44.6662 11.3332 36.6073 11.3332 26.6662ZM29.3332 12.6662C21.6012 12.6662 15.3332 18.9342 15.3332 26.6662C15.3332 27.5591 15.4168 28.4324 15.5765 29.2789C16.6734 28.0827 18.249 27.3328 19.9998 27.3328C23.3135 27.3328 25.9998 30.0191 25.9998 33.3328C25.9998 35.7924 24.5199 37.9064 22.4019 38.8327C24.4455 39.9995 26.8115 40.6662 29.3332 40.6662C36.1155 40.6662 41.7713 35.8434 43.0584 29.4401C41.2755 32.1844 38.183 33.9995 34.6665 33.9995C29.1437 33.9995 24.6665 29.5224 24.6665 23.9995C24.6665 18.4767 29.1437 13.9995 34.6665 13.9995C34.8971 13.9995 35.1259 14.0073 35.3526 14.0227C33.5291 13.153 31.488 12.6662 29.3332 12.6662ZM28.6665 23.9995C28.6665 20.6858 31.3528 17.9995 34.6665 17.9995C37.9802 17.9995 40.6665 20.6858 40.6665 23.9995C40.6665 27.3132 37.9802 29.9995 34.6665 29.9995C31.3528 29.9995 28.6665 27.3132 28.6665 23.9995ZM19.9998 31.3328C18.8953 31.3328 17.9998 32.2283 17.9998 33.3328C17.9998 34.4374 18.8953 35.3328 19.9998 35.3328C21.1044 35.3328 21.9998 34.4374 21.9998 33.3328C21.9998 32.2283 21.1044 31.3328 19.9998 31.3328Z" fill="white"/>
</svg>
