<svg width="64" height="64" viewBox="0 0 64 64" fill="none" xmlns="http://www.w3.org/2000/svg">
<path fill-rule="evenodd" clip-rule="evenodd" d="M22.0002 24C22.0002 18.4772 26.4773 14 32.0002 14C37.523 14 42.0002 18.4772 42.0002 24C42.0002 29.5228 37.523 34 32.0002 34C26.4773 34 22.0002 29.5228 22.0002 24ZM32.0002 18C28.6865 18 26.0002 20.6863 26.0002 24C26.0002 27.3137 28.6865 30 32.0002 30C35.3139 30 38.0002 27.3137 38.0002 24C38.0002 20.6863 35.3139 18 32.0002 18Z" fill="white"/>
<path fill-rule="evenodd" clip-rule="evenodd" d="M14.5506 21.6726C15.2806 12.8161 22.6816 6 31.5682 6H32.4321C41.3187 6 48.7197 12.8161 49.4498 21.6726C49.8411 26.42 48.3746 31.134 45.3593 34.8217L35.7732 46.5452C33.8231 48.9301 30.1772 48.9301 28.2271 46.5452L18.641 34.8216C15.6257 31.134 14.1593 26.42 14.5506 21.6726ZM31.5682 10C24.7634 10 19.0961 15.2194 18.5371 22.0012C18.2309 25.7158 19.3783 29.4042 21.7376 32.2896L31.3237 44.0132C31.6734 44.4408 32.327 44.4408 32.6766 44.0132L42.2627 32.2896C44.6221 29.4042 45.7695 25.7158 45.4633 22.0012C44.9043 15.2194 39.237 10 32.4321 10H31.5682Z" fill="white"/>
<path d="M20.4557 43.5611C20.9497 42.5731 20.5492 41.3718 19.5613 40.8778C18.5733 40.3838 17.372 40.7843 16.878 41.7722L11.5446 52.4389C11.2347 53.0589 11.2678 53.7952 11.6322 54.3848C11.9966 54.9744 12.6403 55.3333 13.3335 55.3333H50.6668C51.36 55.3333 52.0037 54.9744 52.3681 54.3848C52.7325 53.7952 52.7657 53.0589 52.4557 52.4389L47.1224 41.7722C46.6284 40.7843 45.427 40.3838 44.4391 40.8778C43.4511 41.3718 43.0507 42.5731 43.5446 43.5611L47.4308 51.3333H16.5696L20.4557 43.5611Z" fill="white"/>
</svg>
