<svg width="64" height="64" viewBox="0 0 64 64" fill="none" xmlns="http://www.w3.org/2000/svg">
<path fill-rule="evenodd" clip-rule="evenodd" d="M15.5741 26.2838C20.3403 36.6622 28.8216 44.9133 39.3649 49.3842L39.3982 49.3983L41.4351 50.3062C44.0288 51.4618 47.0774 50.641 48.7403 48.3395L52.1386 43.6361C52.3462 43.3489 52.2927 42.9494 52.0168 42.7268L46.0842 37.9407C45.7893 37.7028 45.3556 37.7582 45.13 38.0626L42.821 41.1783C42.2603 41.935 41.2476 42.1979 40.3896 41.8096C32.5058 38.2418 26.1706 31.9066 22.6028 24.0228C22.2145 23.1648 22.4774 22.1521 23.2341 21.5914L26.3497 19.2824C26.6542 19.0568 26.7096 18.6231 26.4717 18.3282L21.6849 12.3948C21.4624 12.119 21.0631 12.0654 20.7758 12.2728L16.047 15.6866C13.7303 17.3591 12.9144 20.4333 14.0969 23.0345L15.5725 26.2803C15.573 26.2815 15.5736 26.2826 15.5741 26.2838ZM37.7865 53.0596C26.3305 48.1967 17.1162 39.2287 11.9374 27.9493L11.9342 27.9426L10.4556 24.69C8.48464 20.3547 9.84445 15.2309 13.7057 12.4434L18.4345 9.02963C20.4455 7.57788 23.2408 7.95283 24.7981 9.88321L29.5849 15.8167C31.2504 17.8811 30.8624 20.9168 28.7314 22.4961L26.946 23.8192C29.9618 29.6709 34.7415 34.4506 40.5932 37.4664L41.9163 35.681C43.4956 33.5499 46.5313 33.162 48.5958 34.8275L54.5284 39.6136C56.4594 41.1714 56.8339 43.9678 55.3809 45.9788L51.9825 50.6821C49.211 54.518 44.13 55.8859 39.8072 53.9599L37.7865 53.0596Z" fill="white"/>
</svg>
