<svg width="200" height="200" viewBox="0 0 200 200" fill="none" xmlns="http://www.w3.org/2000/svg">
<rect width="200" height="200" fill="#023649"/>
<path d="M94.9446 170C85.763 170 77.0759 169.292 68.8832 167.877C60.6904 166.319 53.6984 164.196 47.9069 161.506V128.592C54.2634 131.565 61.3261 133.971 69.095 135.812C76.864 137.652 84.1386 138.572 90.9188 138.572C97.9815 138.572 103.279 138.006 106.81 136.873C110.483 135.599 112.319 132.839 112.319 128.592C112.319 125.619 111.259 123.283 109.141 121.584C107.163 119.886 103.985 118.328 99.6059 116.913C95.3683 115.497 89.7888 113.727 82.8673 111.604C73.6858 108.631 66.4112 105.375 61.0436 101.836C55.6759 98.2967 51.7914 93.9789 49.3901 88.8825C47.13 83.7861 46 77.5572 46 70.1958C46 56.747 50.732 46.5542 60.196 39.6175C69.8013 32.5392 83.9974 29 102.784 29C110.271 29 117.969 29.6371 125.879 30.9111C133.931 32.1852 140.428 33.6009 145.372 35.1581V68.2846C138.733 65.5949 132.377 63.6837 126.303 62.5512C120.229 61.4187 114.508 60.8524 109.141 60.8524C102.925 60.8524 97.6284 61.3479 93.2495 62.3389C88.8706 63.3298 86.6812 65.878 86.6812 69.9834C86.6812 73.5226 88.5175 76.1416 92.1901 77.8404C96.004 79.3976 102.714 81.4503 112.319 83.9985C123.478 86.9714 131.953 90.5813 137.745 94.8283C143.677 99.0753 147.703 104.03 149.822 109.693C151.941 115.214 153 121.514 153 128.592C153 141.05 148.197 151.101 138.592 158.745C128.987 166.248 114.438 170 94.9446 170Z" fill="#87F8AE"/>
</svg>
