<svg width="64" height="64" viewBox="0 0 64 64" fill="none" xmlns="http://www.w3.org/2000/svg">
<path d="M26.6668 8.04687C25.5622 8.04687 24.6668 7.15144 24.6668 6.04688C24.6668 4.94231 25.5622 4.04688 26.6668 4.04688H36.0949C37.1995 4.04688 38.0949 4.94231 38.0949 6.04688C38.0949 7.15144 37.1995 8.04687 36.0949 8.04687H26.6668Z" fill="white"/>
<path d="M17.4144 9.25195C18.1954 10.033 18.1954 11.2993 17.4144 12.0804L10.7477 18.747C9.96666 19.5281 8.70033 19.5281 7.91928 18.747C7.13823 17.966 7.13823 16.6997 7.91928 15.9186L14.5859 9.25195C15.367 8.4709 16.6333 8.4709 17.4144 9.25195Z" fill="white"/>
<path d="M32.0002 15.3328C21.3227 15.3328 12.6668 23.9887 12.6668 34.6662C12.6668 45.3437 21.3227 53.9995 32.0002 53.9995C42.6777 53.9995 51.3335 45.3437 51.3335 34.6662C51.3335 33.5616 52.2289 32.6662 53.3335 32.6662C54.4381 32.6662 55.3335 33.5616 55.3335 34.6662C55.3335 47.5528 44.8868 57.9995 32.0002 57.9995C19.1135 57.9995 8.66683 47.5528 8.66683 34.6662C8.66683 21.7795 19.1135 11.3328 32.0002 11.3328C33.1047 11.3328 34.0002 12.2283 34.0002 13.3328C34.0002 14.4374 33.1047 15.3328 32.0002 15.3328Z" fill="white"/>
<path d="M45.8354 22.3042C46.4546 21.508 46.3841 20.3753 45.6709 19.6621C44.9577 18.9489 43.825 18.8784 43.0288 19.4976L34.5757 26.0722L29.0519 30.0178C27.872 30.8606 27.1717 32.2213 27.1717 33.6714C27.1717 36.1511 29.1819 38.1613 31.6616 38.1613C33.1116 38.1613 34.4724 37.461 35.3152 36.2811L39.2608 30.7573L45.8354 22.3042Z" fill="white"/>
</svg>
